<svg version="1" xmlns="http://www.w3.org/2000/svg" width="400" height="400" viewBox="0 0 300.000000 300.000000"><path d="M153.4 61.9c.4 4-.4 5-4.7 5.3l-3.7.2v54.7l-2.2-.1c-5.4-.5-5.8-.2-5.8 4v4h-6c-6.3 0-6.4.1-6 5.2.2 2.8.1 2.8-6.4 2.8H112v4c0 4.1-.3 4.4-5 4.2-3-.2-3.7 1-3.5 5.4l.3 3.4H87.3l.2-4.4.1-4.4-4.3.2c-4 .2-4.3.1-4.4-2.3-.1-1.4-.2-3.3-.3-4.1-.1-1-1.5-1.7-4.1-2l-4-.5v-15l-4.2-.3-4.3-.3v50.3l4-.4 4-.4v8.6h4c4.2 0 4.1-.2 4.4 6 .1 2.2.6 2.5 4.4 2.8 4.2.3 4.2.3 4.2 4.3v3.9h4.8c4.5.1 8.9 2 7.5 3.3-.3.4-.1.7.6.7 3.1 0 3.6 2.6 3.6 20v17.5l8.8.1 8.7.1v-4.4c0-3.6-.3-4.4-1.7-4.2-1 .1-3 .1-4.5 0-2.6-.1-2.8-.4-2.8-4.4v-4.2h8.5l.3-4.1c.3-4.1.4-4.2 4-4 3.7.1 3.7.1 4-4.2.3-4.2.3-4.2 4.3-4.2h3.9v8.6l4-.2 4-.2v25.4h8.8l8.7-.1v-4c0-4 0-4-4.4-4.5l-4.4-.5.1-14.5c0-8 .1-15.3.1-16.3.1-1.3 1-1.7 4-1.7 4.2 0 5.3-1.2 4.5-5.4-.4-2.5-.2-2.6 4-2.6h4.4l-.2-6.3-.1-6.2 4.3-.3c2.6-.2 4.2-.8 4.1-1.5-.1-.7-.1-7.3 0-14.8l.1-13.6 3.8.2c3.6.2 3.7.4 4 4.4.2 2.2.6 4.1 1 4.2 4.4.7 7.3.3 7.7-1.1.2-.8.4-4.8.4-8.8l-.1-7.2H179v-16h16.4c11.2 0 16.6-.4 16.8-1.1.2-.6.2-2.5 0-4.3l-.4-3.2-12.4.1-12.4.1V105h41.8l-.1-19V67h-8.5l.2-3.8.1-3.7-33.7-.3L153 59l.4 2.9zm16.3 10.5c.4.4.8 2.3.8 4.2 0 3.5 0 3.5-4 3.2-3.8-.3-4-.4-4-3.8-.1-3.6 1.1-4.8 4.6-4.5 1 .1 2.2.5 2.6.9z"/><path d="M20.3 207c-.1 1.3.5 2 1.5 2.1h62.9c2.4-.1 3.1-.5 2.9-1.9-.3-1.6-2.8-1.7-33.7-2-32.9-.2-33.5-.2-33.6 1.8zM170.3 207c.1 1.8.9 2 6.7 2.1h109.3c1-.1 1.7-.9 1.7-2.1 0-2-.7-2-58.9-2-58.4 0-59 0-58.8 2zM249.5 218.7c.2 1 .4 2 .4 2.3.1.3 2.8.6 6.1.6 5.6 0 6-.1 6-2.3 0-2.2-.4-2.3-6.4-2.3-5.6 0-6.4.2-6.1 1.7zM45.9 221.9c0 .3-.2 1.4-.4 2.3-.4 1.9-.5 1.9 9.5 2.1 6.3.1 6.5 0 6.8-2.4.3-2.6.3-2.6-7.7-2.6-4.5-.1-8.1.2-8.2.6zM191 232.7c0 1.8.5 2.2 2.3 1.9 1.3-.2 2.3-1.1 2.5-2.4.3-1.8-.1-2.2-2.2-2-2 .2-2.6.8-2.6 2.5zM20.7 234.9c-.2.3-.3 1.3-.3 2.1.1 1.2 1.7 1.5 8.4 1.5 7.9.1 8.2 0 8.2-2.2s-.3-2.3-8-2.2c-4.4.1-8.2.4-8.3.8zM78.5 235.1c-1.1 1.7.8 3.9 3.3 3.8 4.6-.2 6-.9 5.8-2.7-.2-1.3-1.3-1.7-4.5-1.8-2.3-.1-4.4.2-4.6.7zM220.2 236.4c.3 2 .9 2.1 8.8 2.1 7.8 0 8.5-.2 8.5-2s-.7-2-8.8-2.1c-8.5-.2-8.8-.1-8.5 2z"/></svg>